HIERARCHY
ROOT joint_Root
{
	OFFSET 0.0 0.0 0.0
	CHANNELS 6 Xposition Yposition Zposition Zrotation Xrotation Yrotation 
	JOINT Hips
	{
		OFFSET 4.5925 91.4895 -427.239
		CHANNELS 6 Xposition Yposition Zposition Zrotation Xrotation Yrotation 
		JOINT Spine
		{
			OFFSET 15.7357 0.0 0.0
			CHANNELS 6 Xposition Yposition Zposition Zrotation Xrotation Yrotation 
			JOINT Chest
			{
				OFFSET 8.98455 -0.406207 0.0
				CHANNELS 6 Xposition Yposition Zposition Zrotation Xrotation Yrotation 
				JOINT Neck
				{
					OFFSET 16.3773 0.0 0.0
					CHANNELS 6 Xposition Yposition Zposition Zrotation Xrotation Yrotation 
					JOINT Head
					{
						OFFSET 6.45672 0.0 0.0
						CHANNELS 6 Xposition Yposition Zposition Zrotation Xrotation Yrotation 
						End Site
						{
							OFFSET 0.0 0.0 0.0
						}
					}
				}
				JOINT Shoulder_L
				{
					OFFSET 12.9942 -0.242716 4.98039
					CHANNELS 6 Xposition Yposition Zposition Zrotation Xrotation Yrotation 
					JOINT UpperArm_L
					{
						OFFSET 5.34809 0.0 0.0
						CHANNELS 6 Xposition Yposition Zposition Zrotation Xrotation Yrotation 
						JOINT LowerArm_L
						{
							OFFSET 24.3286 1.87007e-05 0.0
							CHANNELS 6 Xposition Yposition Zposition Zrotation Xrotation Yrotation 
							JOINT Hand_L
							{
								OFFSET 22.2916 0.0 0.0
								CHANNELS 6 Xposition Yposition Zposition Zrotation Xrotation Yrotation 
								End Site
								{
									OFFSET 0.0 0.0 0.0
								}
							}
						}
					}
				}
				JOINT Shoulder_R
				{
					OFFSET 12.9945 -0.242716 -4.98039
					CHANNELS 6 Xposition Yposition Zposition Zrotation Xrotation Yrotation 
					JOINT UpperArm_R
					{
						OFFSET -5.34813 0.0 0.0
						CHANNELS 6 Xposition Yposition Zposition Zrotation Xrotation Yrotation 
						JOINT LowerArm_R
						{
							OFFSET -24.3289 0.000322201 0.0
							CHANNELS 6 Xposition Yposition Zposition Zrotation Xrotation Yrotation 
							JOINT Hand_R
							{
								OFFSET -22.2915 -0.000108084 0.0
								CHANNELS 6 Xposition Yposition Zposition Zrotation Xrotation Yrotation 
								End Site
								{
									OFFSET 0.0 0.0 0.0
								}
							}
						}
					}
				}
			}
		}
		JOINT UpperLeg_L
		{
			OFFSET -2.19248 -6.46944 0.0
			CHANNELS 6 Xposition Yposition Zposition Zrotation Xrotation Yrotation 
			JOINT LowerLeg_L
			{
				OFFSET 39.0811 0.0 -1.23785e-05
				CHANNELS 6 Xposition Yposition Zposition Zrotation Xrotation Yrotation 
				JOINT Foot_L
				{
					OFFSET 40.9854 0.0 -1.26872e-05
					CHANNELS 6 Xposition Yposition Zposition Zrotation Xrotation Yrotation 
					JOINT Toes_L
					{
						OFFSET 11.7543 0.0 0.0
						CHANNELS 6 Xposition Yposition Zposition Zrotation Xrotation Yrotation 
						End Site
						{
							OFFSET 0.0 0.0 0.0
						}
					}
				}
			}
		}
		JOINT UpperLeg_R
		{
			OFFSET -2.19251 6.46944 0.0
			CHANNELS 6 Xposition Yposition Zposition Zrotation Xrotation Yrotation 
			JOINT LowerLeg_R
			{
				OFFSET -39.0811 -0.00228153 -0.0401928
				CHANNELS 6 Xposition Yposition Zposition Zrotation Xrotation Yrotation 
				JOINT Foot_R
				{
					OFFSET -40.9854 0.0 0.0
					CHANNELS 6 Xposition Yposition Zposition Zrotation Xrotation Yrotation 
					JOINT Toes_R
					{
						OFFSET -11.7543 0.0 0.0
						CHANNELS 6 Xposition Yposition Zposition Zrotation Xrotation Yrotation 
						End Site
						{
							OFFSET 0.0 0.0 0.0
						}
					}
				}
			}
		}
	}
}
MOTION
Frames:	6
Frame Time:	0.0333333
0.000000 0.000000 0.000000 0.000000 0.000000 -0.000000 -0.244149 90.052100 -3.156410 89.161000 -3.142300 10.864500 15.735700 0.000005 -0.000001 89.021500 77.703200 -89.191100 8.984550 -0.406207 -0.000000 16.823700 -0.426538 -0.276652 16.377300 -0.000001 -0.000001 3.863890 -2.486380 1.651770 6.456720 -0.000001 -0.000000 -13.565100 -1.474810 1.605790 12.994200 -0.242716 4.980390 -90.901000 4.801450 -79.358900 5.348090 -0.000007 -0.000001 -57.521500 35.349600 -30.101700 24.328600 0.000019 0.000005 7.880610 19.731900 -22.292400 22.291600 -0.000001 0.000005 12.988600 5.195620 2.828840 12.994500 -0.242716 -4.980390 89.440200 9.507760 -86.615000 -5.348130 -0.000001 -0.000004 -60.167400 31.011700 -23.174600 -24.328900 0.000322 -0.000009 2.404820 5.657670 -23.082700 -22.291500 -0.000108 -0.000004 18.431100 5.394050 -2.744920 -2.192480 -6.469440 -0.000000 -174.845000 -11.856300 -4.028920 39.081100 -0.000007 -0.000012 -0.238604 0.330928 35.792600 40.985400 -0.000006 -0.000013 0.918777 5.156410 -70.774700 11.754300 -0.000000 0.000003 -0.000087 -0.000916 -16.612800 -2.192510 6.469440 -0.000001 175.346000 17.946500 177.474000 -39.081100 -0.002282 -0.040193 -0.162367 0.237645 34.879800 -40.985400 0.000008 0.000006 5.078740 12.705900 -71.712800 -11.754300 -0.000006 -0.000006 -0.002682 -0.036947 -18.075600
0.000000 0.000000 0.000000 0.000000 0.000000 -0.000000 -0.251564 90.052000 -3.189920 89.151700 -3.136280 10.897400 15.735700 0.000005 -0.000001 89.030700 77.705500 -89.189800 8.984550 -0.406207 -0.000000 16.819200 -0.421745 -0.256179 16.377300 -0.000001 -0.000001 3.922030 -2.466100 1.631020 6.456720 -0.000001 -0.000000 -13.550000 -1.465110 1.589490 12.994200 -0.242716 4.980390 -90.891500 4.764990 -79.389600 5.348090 -0.000007 -0.000001 -58.029100 34.774600 -29.650200 24.328600 0.000019 0.000005 8.044610 19.409500 -23.040000 22.291600 -0.000001 0.000005 13.272900 5.196000 2.819420 12.994500 -0.242716 -4.980390 89.430300 9.509030 -86.555600 -5.348130 -0.000001 -0.000004 -60.495600 30.275600 -22.800700 -24.328900 0.000322 -0.000009 2.567490 5.693330 -24.332500 -22.291500 -0.000108 -0.000004 18.846600 5.398050 -2.874080 -2.192480 -6.469440 -0.000000 -174.829000 -11.818000 -4.029200 39.081100 -0.000007 -0.000012 -0.241912 0.335386 35.803200 40.985400 -0.000006 -0.000013 0.909099 5.150060 -70.752000 11.754300 -0.000000 0.000003 -0.000091 -0.000947 -16.614000 -2.192510 6.469440 -0.000001 175.380000 17.911000 177.472000 -39.081100 -0.002282 -0.040193 -0.156345 0.228869 34.895800 -40.985400 0.000008 0.000006 5.149990 12.641600 -71.713900 -11.754300 -0.000006 -0.000006 -0.002590 -0.035875 -18.032000
0.000000 0.000000 0.000000 0.000000 0.000000 -0.000000 -0.261285 90.049800 -3.215020 89.173700 -3.109120 10.934500 15.735700 0.000005 -0.000001 89.000500 77.705400 -89.163000 8.984550 -0.406207 -0.000000 16.819100 -0.434785 -0.261229 16.377300 -0.000001 -0.000001 3.961500 -2.469430 1.624480 6.456720 -0.000001 -0.000000 -13.499800 -1.447760 1.592620 12.994200 -0.242716 4.980390 -90.899400 4.768680 -79.306600 5.348090 -0.000007 -0.000001 -58.310100 34.279000 -29.385600 24.328600 0.000019 0.000005 8.233800 18.991200 -23.973100 22.291600 -0.000001 0.000005 13.569100 5.194770 2.850040 12.994500 -0.242716 -4.980390 89.413000 9.530040 -86.459200 -5.348130 -0.000001 -0.000004 -60.792800 29.429100 -22.400200 -24.328900 0.000322 -0.000009 2.682260 5.514910 -25.998000 -22.291500 -0.000108 -0.000004 19.177600 5.401920 -3.000020 -2.192480 -6.469440 -0.000000 -174.829000 -11.856900 -4.017860 39.081100 -0.000007 -0.000012 -0.241790 0.335163 35.807500 40.985400 -0.000006 -0.000013 0.918592 5.199260 -70.729300 11.754300 -0.000000 0.000003 -0.000085 -0.000899 -16.612200 -2.192510 6.469440 -0.000001 175.337000 17.936400 177.493000 -39.081100 -0.002282 -0.040193 -0.163154 0.238514 34.909200 -40.985400 0.000008 0.000006 5.080600 12.674900 -71.691500 -11.754300 -0.000006 -0.000006 -0.002650 -0.036580 -18.060700
0.000000 0.000000 0.000000 0.000000 0.000000 -0.000000 -0.274389 90.052400 -3.256220 89.176900 -3.050870 10.925900 15.735700 0.000005 -0.000001 88.898500 77.721800 -89.057000 8.984550 -0.406207 -0.000000 16.785500 -0.476880 -0.247090 16.377300 -0.000001 -0.000001 4.019690 -2.461440 1.585500 6.456720 -0.000001 -0.000000 -13.370900 -1.465030 1.625100 12.994200 -0.242716 4.980390 -90.903500 4.785200 -79.294600 5.348090 -0.000007 -0.000001 -58.403700 33.822400 -29.150300 24.328600 0.000019 0.000005 8.612480 18.706200 -25.279200 22.291600 -0.000001 0.000005 13.629700 5.197460 2.782780 12.994500 -0.242716 -4.980390 89.401500 9.569360 -86.404500 -5.348130 -0.000001 -0.000004 -60.840100 28.717800 -22.112000 -24.328900 0.000322 -0.000009 2.754930 5.205050 -27.952400 -22.291500 -0.000108 -0.000004 19.536800 5.406310 -3.143200 -2.192480 -6.469440 -0.000000 -174.843000 -11.810000 -4.064300 39.081100 -0.000007 -0.000012 -0.238790 0.331046 35.804000 40.985400 -0.000006 -0.000013 0.922804 5.229510 -70.693700 11.754300 -0.000000 0.000003 -0.000087 -0.000909 -16.612500 -2.192510 6.469440 -0.000001 175.347000 18.007800 177.460000 -39.081100 -0.002282 -0.040193 -0.160970 0.235375 34.910200 -40.985400 0.000008 0.000006 5.087540 12.662300 -71.666700 -11.754300 -0.000006 -0.000006 -0.002526 -0.035119 -18.001200
0.000000 0.000000 0.000000 0.000000 0.000000 -0.000000 -0.286587 90.056700 -3.290600 89.174200 -3.043120 10.975000 15.735700 0.000005 -0.000001 88.892000 77.704100 -89.049100 8.984550 -0.406207 -0.000000 16.820900 -0.480230 -0.243840 16.377300 -0.000001 -0.000001 4.008420 -2.484020 1.597910 6.456720 -0.000001 -0.000000 -13.190700 -1.436430 1.586770 12.994200 -0.242716 4.980390 -90.915300 4.822980 -79.241000 5.348090 -0.000007 -0.000001 -58.278000 33.447600 -29.051800 24.328600 0.000019 0.000005 8.911330 17.931400 -26.989000 22.291600 -0.000001 0.000005 13.632600 5.199900 2.721660 12.994500 -0.242716 -4.980390 89.383600 9.589330 -86.304900 -5.348130 -0.000001 -0.000004 -60.651800 28.218900 -22.039300 -24.328900 0.000322 -0.000009 2.963130 5.112590 -30.158300 -22.291500 -0.000108 -0.000004 19.850600 5.410750 -3.289720 -2.192480 -6.469440 -0.000000 -174.828000 -11.791100 -4.029550 39.081100 -0.000007 -0.000012 -0.238741 0.331159 35.789200 40.985400 -0.000006 -0.000013 0.914770 5.230270 -70.663500 11.754300 -0.000000 0.000003 -0.000089 -0.000930 -16.613300 -2.192510 6.469440 -0.000001 175.355000 18.007100 177.492000 -39.081100 -0.002282 -0.040193 -0.158587 0.232023 34.902800 -40.985400 0.000008 0.000006 5.142150 12.646000 -71.655600 -11.754300 -0.000006 -0.000006 -0.002650 -0.036580 -18.060700
0.000000 0.000000 0.000000 0.000000 0.000000 -0.000000 -0.292006 90.056900 -3.325800 89.183400 -3.028260 11.013300 15.735700 0.000005 -0.000001 88.870700 77.686600 -89.027800 8.984550 -0.406207 -0.000000 16.855800 -0.489908 -0.242052 16.377300 -0.000001 -0.000001 3.988830 -2.482290 1.603240 6.456720 -0.000001 -0.000000 -12.943100 -1.406670 1.548730 12.994200 -0.242716 4.980390 -90.930000 4.870210 -79.175300 5.348090 -0.000007 -0.000001 -58.177300 32.907800 -28.984900 24.328600 0.000019 0.000005 9.336810 17.286400 -28.956400 22.291600 -0.000001 0.000005 13.884500 5.205120 2.590570 12.994500 -0.242716 -4.980390 89.366400 9.571760 -86.194800 -5.348130 -0.000001 -0.000004 -60.369500 27.785900 -22.066000 -24.328900 0.000322 -0.000009 3.501300 5.501830 -32.550300 -22.291500 -0.000108 -0.000004 20.215600 5.413970 -3.397290 -2.192480 -6.469440 -0.000000 -174.838000 -11.760700 -4.024300 39.081100 -0.000007 -0.000012 -0.238452 0.330735 35.791100 40.985400 -0.000006 -0.000013 0.905664 5.205080 -70.633800 11.754300 -0.000000 0.000003 -0.000085 -0.000897 -16.612100 -2.192510 6.469440 -0.000001 175.339000 18.013100 177.497000 -39.081100 -0.002282 -0.040193 -0.161088 0.235473 34.918200 -40.985400 0.000008 0.000006 5.165220 12.649300 -71.642300 -11.754300 -0.000006 -0.000006 -0.002504 -0.034857 -17.990600
